ISO-10303-21;
HEADER;
FILE_DESCRIPTION (( 'STEP AP214' ),
    '1' );
FILE_NAME ('Back Pin Piece.STEP',
    '2026-03-03T06:32:00',
    ( '' ),
    ( '' ),
    'SwSTEP 2.0',
    'SolidWorks 2025',
    '' );
FILE_SCHEMA (( 'AUTOMOTIVE_DESIGN' ));
ENDSEC;

DATA;
#1 = ADVANCED_FACE ( 'NONE', ( #51 ), #125, .F. ) ;
#2 = AXIS2_PLACEMENT_3D ( 'NONE', #21, #101, #67 ) ;
#3 = CARTESIAN_POINT ( 'NONE',  ( 0.000000000000000000, 12.52999999999999936, -0.7250000000000000888 ) ) ;
#4 = VERTEX_POINT ( 'NONE', #17 ) ;
#5 = ADVANCED_FACE ( 'NONE', ( #90 ), #78, .T. ) ;
#6 = ORIENTED_EDGE ( 'NONE', *, *, #83, .F. ) ;
#7 = PRODUCT ( 'Back Pin Piece', 'Back Pin Piece', '', ( #32 ) ) ;
#8 = LINE ( 'NONE', #107, #13 ) ;
#9 = LINE ( 'NONE', #123, #119 ) ;
#10 = AXIS2_PLACEMENT_3D ( 'NONE', #79, #29, #50 ) ;
#11 = DIRECTION ( 'NONE',  ( 0.000000000000000000, 0.000000000000000000, 1.000000000000000000 ) ) ;
#12 =( NAMED_UNIT ( * ) PLANE_ANGLE_UNIT ( ) SI_UNIT ( $, .RADIAN. ) );
#13 = VECTOR ( 'NONE', #116, 1000.000000000000000 ) ;
#14 = CARTESIAN_POINT ( 'NONE',  ( 0.000000000000000000, 0.000000000000000000, 0.000000000000000000 ) ) ;
#15 = CIRCLE ( 'NONE', #20, 0.7250000000000000888 ) ;
#16 = ADVANCED_FACE ( 'NONE', ( #63 ), #70, .T. ) ;
#17 = CARTESIAN_POINT ( 'NONE',  ( 0.000000000000000000, 0.000000000000000000, -0.7250000000000000888 ) ) ;
#18 = CARTESIAN_POINT ( 'NONE',  ( 0.000000000000000000, 12.52999999999999936, 0.000000000000000000 ) ) ;
#19 = DIRECTION ( 'NONE',  ( 0.000000000000000000, 1.000000000000000000, 0.000000000000000000 ) ) ;
#20 = AXIS2_PLACEMENT_3D ( 'NONE', #91, #19, #61 ) ;
#21 = CARTESIAN_POINT ( 'NONE',  ( 0.000000000000000000, 12.52999999999999936, 0.000000000000000000 ) ) ;
#22 = SURFACE_STYLE_USAGE ( .BOTH. , #124 ) ;
#23 = AXIS2_PLACEMENT_3D ( 'NONE', #18, #111, #40 ) ;
#24 = AXIS2_PLACEMENT_3D ( 'NONE', #100, #102, #56 ) ;
#25 = FACE_OUTER_BOUND ( 'NONE', #120, .T. ) ;
#26 = ORIENTED_EDGE ( 'NONE', *, *, #65, .T. ) ;
#27 = APPLICATION_CONTEXT ( 'automotive_design' ) ;
#28 = CARTESIAN_POINT ( 'NONE',  ( 0.000000000000000000, 0.000000000000000000, 0.000000000000000000 ) ) ;
#29 = DIRECTION ( 'NONE',  ( -0.000000000000000000, -1.000000000000000000, -0.000000000000000000 ) ) ;
#30 = SHAPE_DEFINITION_REPRESENTATION ( #77, #35 ) ;
#31 = PRESENTATION_LAYER_ASSIGNMENT (  '', '', ( #58 ) ) ;
#32 = PRODUCT_CONTEXT ( 'NONE', #27, 'mechanical' ) ;
#33 = EDGE_CURVE ( 'NONE', #4, #75, #89, .T. ) ;
#34 = ORIENTED_EDGE ( 'NONE', *, *, #83, .T. ) ;
#35 = ADVANCED_BREP_SHAPE_REPRESENTATION ( 'Back Pin Piece', ( #97, #115 ), #43 ) ;
#36 = DIRECTION ( 'NONE',  ( 0.000000000000000000, -0.000000000000000000, 1.000000000000000000 ) ) ;
#37 = CIRCLE ( 'NONE', #2, 0.7250000000000000888 ) ;
#38 = DIRECTION ( 'NONE',  ( 0.000000000000000000, 1.000000000000000000, 0.000000000000000000 ) ) ;
#39 = PRESENTATION_STYLE_ASSIGNMENT (( #22 ) ) ;
#40 = DIRECTION ( 'NONE',  ( 0.000000000000000000, 0.000000000000000000, -1.000000000000000000 ) ) ;
#41 = ORIENTED_EDGE ( 'NONE', *, *, #109, .F. ) ;
#42 = ADVANCED_FACE ( 'NONE', ( #25 ), #66, .T. ) ;
#43 =( GEOMETRIC_REPRESENTATION_CONTEXT ( 3 ) GLOBAL_UNCERTAINTY_ASSIGNED_CONTEXT ( ( #84 ) ) GLOBAL_UNIT_ASSIGNED_CONTEXT ( ( #71, #118, #44 ) ) REPRESENTATION_CONTEXT ( 'NONE', 'WORKASPACE' ) );
#44 =( NAMED_UNIT ( * ) SI_UNIT ( $, .STERADIAN. ) SOLID_ANGLE_UNIT ( ) );
#45 = DIRECTION ( 'NONE',  ( 1.000000000000000000, 0.000000000000000000, 0.000000000000000000 ) ) ;
#46 = VERTEX_POINT ( 'NONE', #99 ) ;
#47 = PRODUCT_RELATED_PRODUCT_CATEGORY ( 'part', '', ( #7 ) ) ;
#48 = ORIENTED_EDGE ( 'NONE', *, *, #33, .F. ) ;
#49 = ORIENTED_EDGE ( 'NONE', *, *, #65, .F. ) ;
#50 = DIRECTION ( 'NONE',  ( 0.000000000000000000, 0.000000000000000000, -1.000000000000000000 ) ) ;
#51 = FACE_OUTER_BOUND ( 'NONE', #74, .T. ) ;
#52 = MECHANICAL_DESIGN_GEOMETRIC_PRESENTATION_REPRESENTATION (  '', ( #58 ), #86 ) ;
#53 = DIRECTION ( 'NONE',  ( 0.000000000000000000, -0.000000000000000000, 1.000000000000000000 ) ) ;
#54 = EDGE_CURVE ( 'NONE', #104, #4, #9, .T. ) ;
#55 = FILL_AREA_STYLE ('',( #62 ) ) ;
#56 = DIRECTION ( 'NONE',  ( 0.000000000000000000, 0.000000000000000000, 1.000000000000000000 ) ) ;
#57 = APPLICATION_PROTOCOL_DEFINITION ( 'draft international standard', 'automotive_design', 1998, #27 ) ;
#58 = STYLED_ITEM ( 'NONE', ( #39 ), #97 ) ;
#59 = CARTESIAN_POINT ( 'NONE',  ( 0.000000000000000000, 12.52999999999999936, 0.000000000000000000 ) ) ;
#60 = DIRECTION ( 'NONE',  ( 0.000000000000000000, 1.000000000000000000, 0.000000000000000000 ) ) ;
#61 = DIRECTION ( 'NONE',  ( 0.000000000000000000, 0.000000000000000000, 1.000000000000000000 ) ) ;
#62 = FILL_AREA_STYLE_COLOUR ( '', #108 ) ;
#63 = FACE_OUTER_BOUND ( 'NONE', #103, .T. ) ;
#64 = APPLICATION_CONTEXT ( 'automotive_design' ) ;
#65 = EDGE_CURVE ( 'NONE', #104, #46, #37, .T. ) ;
#66 = PLANE ( 'NONE',  #73 ) ;
#67 = DIRECTION ( 'NONE',  ( 0.000000000000000000, 0.000000000000000000, 1.000000000000000000 ) ) ;
#68 = DIRECTION ( 'NONE',  ( 0.000000000000000000, 1.000000000000000000, 0.000000000000000000 ) ) ;
#69 = CLOSED_SHELL ( 'NONE', ( #16, #5, #42, #1 ) ) ;
#70 = CYLINDRICAL_SURFACE ( 'NONE', #23, 0.7250000000000000888 ) ;
#71 =( LENGTH_UNIT ( ) NAMED_UNIT ( * ) SI_UNIT ( .MILLI., .METRE. ) );
#72 = APPLICATION_PROTOCOL_DEFINITION ( 'draft international standard', 'automotive_design', 1998, #64 ) ;
#73 = AXIS2_PLACEMENT_3D ( 'NONE', #59, #60, #53 ) ;
#74 = EDGE_LOOP ( 'NONE', ( #48, #41 ) ) ;
#75 = VERTEX_POINT ( 'NONE', #105 ) ;
#76 = UNCERTAINTY_MEASURE_WITH_UNIT (LENGTH_MEASURE( 1.000000000000000082E-05 ), #114, 'distance_accuracy_value', 'NONE');
#77 = PRODUCT_DEFINITION_SHAPE ( 'NONE', 'NONE',  #112 ) ;
#78 = CYLINDRICAL_SURFACE ( 'NONE', #10, 0.7250000000000000888 ) ;
#79 = CARTESIAN_POINT ( 'NONE',  ( 0.000000000000000000, 12.52999999999999936, 0.000000000000000000 ) ) ;
#80 = EDGE_LOOP ( 'NONE', ( #6, #49, #106, #122 ) ) ;
#81 = CARTESIAN_POINT ( 'NONE',  ( 0.000000000000000000, 0.000000000000000000, 0.000000000000000000 ) ) ;
#82 = PRODUCT_DEFINITION_CONTEXT ( 'detailed design', #64, 'design' ) ;
#83 = EDGE_CURVE ( 'NONE', #46, #75, #8, .T. ) ;
#84 = UNCERTAINTY_MEASURE_WITH_UNIT (LENGTH_MEASURE( 1.000000000000000082E-05 ), #71, 'distance_accuracy_value', 'NONE');
#85 = DIRECTION ( 'NONE',  ( 0.000000000000000000, 0.000000000000000000, 1.000000000000000000 ) ) ;
#86 =( GEOMETRIC_REPRESENTATION_CONTEXT ( 3 ) GLOBAL_UNCERTAINTY_ASSIGNED_CONTEXT ( ( #76 ) ) GLOBAL_UNIT_ASSIGNED_CONTEXT ( ( #114, #12, #93 ) ) REPRESENTATION_CONTEXT ( 'NONE', 'WORKASPACE' ) );
#87 = ORIENTED_EDGE ( 'NONE', *, *, #94, .T. ) ;
#88 = ORIENTED_EDGE ( 'NONE', *, *, #109, .T. ) ;
#89 = CIRCLE ( 'NONE', #95, 0.7250000000000000888 ) ;
#90 = FACE_OUTER_BOUND ( 'NONE', #80, .T. ) ;
#91 = CARTESIAN_POINT ( 'NONE',  ( 0.000000000000000000, 12.52999999999999936, 0.000000000000000000 ) ) ;
#92 = ORIENTED_EDGE ( 'NONE', *, *, #54, .F. ) ;
#93 =( NAMED_UNIT ( * ) SI_UNIT ( $, .STERADIAN. ) SOLID_ANGLE_UNIT ( ) );
#94 = EDGE_CURVE ( 'NONE', #46, #104, #15, .T. ) ;
#95 = AXIS2_PLACEMENT_3D ( 'NONE', #81, #68, #11 ) ;
#96 = ORIENTED_EDGE ( 'NONE', *, *, #94, .F. ) ;
#97 = MANIFOLD_SOLID_BREP ( 'Boss-Extrude1', #69 ) ;
#98 = SURFACE_STYLE_FILL_AREA ( #55 ) ;
#99 = CARTESIAN_POINT ( 'NONE',  ( 8.878689293818309581E-17, 12.52999999999999936, 0.7250000000000000888 ) ) ;
#100 = CARTESIAN_POINT ( 'NONE',  ( 0.000000000000000000, 0.000000000000000000, 0.000000000000000000 ) ) ;
#101 = DIRECTION ( 'NONE',  ( 0.000000000000000000, 1.000000000000000000, 0.000000000000000000 ) ) ;
#102 = DIRECTION ( 'NONE',  ( 0.000000000000000000, 1.000000000000000000, 0.000000000000000000 ) ) ;
#103 = EDGE_LOOP ( 'NONE', ( #96, #34, #88, #92 ) ) ;
#104 = VERTEX_POINT ( 'NONE', #3 ) ;
#105 = CARTESIAN_POINT ( 'NONE',  ( 8.878689293818309581E-17, 0.000000000000000000, 0.7250000000000000888 ) ) ;
#106 = ORIENTED_EDGE ( 'NONE', *, *, #54, .T. ) ;
#107 = CARTESIAN_POINT ( 'NONE',  ( 8.878689293818309581E-17, 12.52999999999999936, 0.7250000000000000888 ) ) ;
#108 = COLOUR_RGB ( '',0.7921568627450980005, 0.8196078431372548767, 0.9333333333333333481 ) ;
#109 = EDGE_CURVE ( 'NONE', #75, #4, #117, .T. ) ;
#110 = PRODUCT_DEFINITION_FORMATION_WITH_SPECIFIED_SOURCE ( 'ANY', '', #7, .NOT_KNOWN. ) ;
#111 = DIRECTION ( 'NONE',  ( -0.000000000000000000, -1.000000000000000000, -0.000000000000000000 ) ) ;
#112 = PRODUCT_DEFINITION ( 'UNKNOWN', '', #110, #82 ) ;
#113 = DIRECTION ( 'NONE',  ( -0.000000000000000000, -1.000000000000000000, -0.000000000000000000 ) ) ;
#114 =( LENGTH_UNIT ( ) NAMED_UNIT ( * ) SI_UNIT ( .MILLI., .METRE. ) );
#115 = AXIS2_PLACEMENT_3D ( 'NONE', #14, #85, #45 ) ;
#116 = DIRECTION ( 'NONE',  ( -0.000000000000000000, -1.000000000000000000, -0.000000000000000000 ) ) ;
#117 = CIRCLE ( 'NONE', #24, 0.7250000000000000888 ) ;
#118 =( NAMED_UNIT ( * ) PLANE_ANGLE_UNIT ( ) SI_UNIT ( $, .RADIAN. ) );
#119 = VECTOR ( 'NONE', #113, 1000.000000000000000 ) ;
#120 = EDGE_LOOP ( 'NONE', ( #26, #87 ) ) ;
#121 = AXIS2_PLACEMENT_3D ( 'NONE', #28, #38, #36 ) ;
#122 = ORIENTED_EDGE ( 'NONE', *, *, #33, .T. ) ;
#123 = CARTESIAN_POINT ( 'NONE',  ( 0.000000000000000000, 12.52999999999999936, -0.7250000000000000888 ) ) ;
#124 = SURFACE_SIDE_STYLE ('',( #98 ) ) ;
#125 = PLANE ( 'NONE',  #121 ) ;
ENDSEC;
END-ISO-10303-21;
