ISO-10303-21;
HEADER;
FILE_DESCRIPTION (( 'STEP AP214' ),
    '1' );
FILE_NAME ('Front Pin Piece.STEP',
    '2026-03-03T06:31:02',
    ( '' ),
    ( '' ),
    'SwSTEP 2.0',
    'SolidWorks 2025',
    '' );
FILE_SCHEMA (( 'AUTOMOTIVE_DESIGN' ));
ENDSEC;

DATA;
#1 = VERTEX_POINT ( 'NONE', #35 ) ;
#2 = VECTOR ( 'NONE', #93, 1000.000000000000000 ) ;
#3 = ORIENTED_EDGE ( 'NONE', *, *, #112, .T. ) ;
#4 = EDGE_CURVE ( 'NONE', #22, #51, #85, .T. ) ;
#5 = PLANE ( 'NONE',  #84 ) ;
#6 = APPLICATION_PROTOCOL_DEFINITION ( 'draft international standard', 'automotive_design', 1998, #76 ) ;
#7 = PRODUCT_CONTEXT ( 'NONE', #39, 'mechanical' ) ;
#8 = PRODUCT_DEFINITION_FORMATION_WITH_SPECIFIED_SOURCE ( 'ANY', '', #92, .NOT_KNOWN. ) ;
#9 =( NAMED_UNIT ( * ) SI_UNIT ( $, .STERADIAN. ) SOLID_ANGLE_UNIT ( ) );
#10 = EDGE_LOOP ( 'NONE', ( #117, #38 ) ) ;
#11 = DIRECTION ( 'NONE',  ( -0.000000000000000000, -1.000000000000000000, -0.000000000000000000 ) ) ;
#12 = ORIENTED_EDGE ( 'NONE', *, *, #4, .T. ) ;
#13 = ORIENTED_EDGE ( 'NONE', *, *, #112, .F. ) ;
#14 = UNCERTAINTY_MEASURE_WITH_UNIT (LENGTH_MEASURE( 1.000000000000000082E-05 ), #21, 'distance_accuracy_value', 'NONE');
#15 = EDGE_LOOP ( 'NONE', ( #69, #3 ) ) ;
#16 = AXIS2_PLACEMENT_3D ( 'NONE', #56, #114, #115 ) ;
#17 = PRESENTATION_LAYER_ASSIGNMENT (  '', '', ( #74 ) ) ;
#18 = SURFACE_SIDE_STYLE ('',( #106 ) ) ;
#19 = DIRECTION ( 'NONE',  ( 0.000000000000000000, -0.000000000000000000, 1.000000000000000000 ) ) ;
#20 = ADVANCED_FACE ( 'NONE', ( #37 ), #5, .T. ) ;
#21 =( LENGTH_UNIT ( ) NAMED_UNIT ( * ) SI_UNIT ( .MILLI., .METRE. ) );
#22 = VERTEX_POINT ( 'NONE', #81 ) ;
#23 = EDGE_CURVE ( 'NONE', #30, #1, #109, .T. ) ;
#24 = ORIENTED_EDGE ( 'NONE', *, *, #23, .T. ) ;
#25 = CARTESIAN_POINT ( 'NONE',  ( 0.000000000000000000, 9.339999999999999858, 0.000000000000000000 ) ) ;
#26 = SHAPE_DEFINITION_REPRESENTATION ( #75, #53 ) ;
#27 = CARTESIAN_POINT ( 'NONE',  ( 0.000000000000000000, 9.339999999999999858, 0.000000000000000000 ) ) ;
#28 = PLANE ( 'NONE',  #47 ) ;
#29 = SURFACE_STYLE_USAGE ( .BOTH. , #18 ) ;
#30 = VERTEX_POINT ( 'NONE', #110 ) ;
#31 = DIRECTION ( 'NONE',  ( 0.000000000000000000, 1.000000000000000000, 0.000000000000000000 ) ) ;
#32 = DIRECTION ( 'NONE',  ( 0.000000000000000000, 1.000000000000000000, 0.000000000000000000 ) ) ;
#33 = CIRCLE ( 'NONE', #96, 0.8149999999999999467 ) ;
#34 = DIRECTION ( 'NONE',  ( 0.000000000000000000, 1.000000000000000000, 0.000000000000000000 ) ) ;
#35 = CARTESIAN_POINT ( 'NONE',  ( 0.000000000000000000, 0.000000000000000000, -0.8149999999999999467 ) ) ;
#36 = ADVANCED_FACE ( 'NONE', ( #82 ), #50, .T. ) ;
#37 = FACE_OUTER_BOUND ( 'NONE', #15, .T. ) ;
#38 = ORIENTED_EDGE ( 'NONE', *, *, #90, .F. ) ;
#39 = APPLICATION_CONTEXT ( 'automotive_design' ) ;
#40 = AXIS2_PLACEMENT_3D ( 'NONE', #25, #43, #120 ) ;
#41 = ORIENTED_EDGE ( 'NONE', *, *, #83, .T. ) ;
#42 =( NAMED_UNIT ( * ) PLANE_ANGLE_UNIT ( ) SI_UNIT ( $, .RADIAN. ) );
#43 = DIRECTION ( 'NONE',  ( 0.000000000000000000, 1.000000000000000000, 0.000000000000000000 ) ) ;
#44 = COLOUR_RGB ( '',0.7921568627450980005, 0.8196078431372548767, 0.9333333333333333481 ) ;
#45 = FACE_OUTER_BOUND ( 'NONE', #99, .T. ) ;
#46 = FACE_OUTER_BOUND ( 'NONE', #10, .T. ) ;
#47 = AXIS2_PLACEMENT_3D ( 'NONE', #71, #108, #19 ) ;
#48 = DIRECTION ( 'NONE',  ( 0.000000000000000000, -0.000000000000000000, 1.000000000000000000 ) ) ;
#49 = MANIFOLD_SOLID_BREP ( 'Boss-Extrude1', #102 ) ;
#50 = CYLINDRICAL_SURFACE ( 'NONE', #67, 0.8149999999999999467 ) ;
#51 = VERTEX_POINT ( 'NONE', #79 ) ;
#52 = AXIS2_PLACEMENT_3D ( 'NONE', #94, #34, #57 ) ;
#53 = ADVANCED_BREP_SHAPE_REPRESENTATION ( 'Front Pin Piece', ( #49, #16 ), #122 ) ;
#54 = ADVANCED_FACE ( 'NONE', ( #46 ), #28, .F. ) ;
#55 = APPLICATION_PROTOCOL_DEFINITION ( 'draft international standard', 'automotive_design', 1998, #39 ) ;
#56 = CARTESIAN_POINT ( 'NONE',  ( 0.000000000000000000, 0.000000000000000000, 0.000000000000000000 ) ) ;
#57 = DIRECTION ( 'NONE',  ( 0.000000000000000000, 0.000000000000000000, 1.000000000000000000 ) ) ;
#58 = PRESENTATION_STYLE_ASSIGNMENT (( #29 ) ) ;
#59 = ORIENTED_EDGE ( 'NONE', *, *, #23, .F. ) ;
#60 = ORIENTED_EDGE ( 'NONE', *, *, #4, .F. ) ;
#61 = DIRECTION ( 'NONE',  ( -0.000000000000000000, -1.000000000000000000, -0.000000000000000000 ) ) ;
#62 = FILL_AREA_STYLE ('',( #73 ) ) ;
#63 = CIRCLE ( 'NONE', #80, 0.8149999999999999467 ) ;
#64 = CARTESIAN_POINT ( 'NONE',  ( 0.000000000000000000, 0.000000000000000000, 0.000000000000000000 ) ) ;
#65 = DIRECTION ( 'NONE',  ( -0.000000000000000000, -1.000000000000000000, -0.000000000000000000 ) ) ;
#66 = UNCERTAINTY_MEASURE_WITH_UNIT (LENGTH_MEASURE( 1.000000000000000082E-05 ), #105, 'distance_accuracy_value', 'NONE');
#67 = AXIS2_PLACEMENT_3D ( 'NONE', #27, #11, #118 ) ;
#68 = PRODUCT_RELATED_PRODUCT_CATEGORY ( 'part', '', ( #92 ) ) ;
#69 = ORIENTED_EDGE ( 'NONE', *, *, #97, .T. ) ;
#70 = AXIS2_PLACEMENT_3D ( 'NONE', #121, #65, #104 ) ;
#71 = CARTESIAN_POINT ( 'NONE',  ( 0.000000000000000000, 0.000000000000000000, 0.000000000000000000 ) ) ;
#72 = CARTESIAN_POINT ( 'NONE',  ( 9.980871413050927492E-17, 9.339999999999999858, 0.8149999999999999467 ) ) ;
#73 = FILL_AREA_STYLE_COLOUR ( '', #44 ) ;
#74 = STYLED_ITEM ( 'NONE', ( #58 ), #49 ) ;
#75 = PRODUCT_DEFINITION_SHAPE ( 'NONE', 'NONE',  #78 ) ;
#76 = APPLICATION_CONTEXT ( 'automotive_design' ) ;
#77 = VECTOR ( 'NONE', #61, 1000.000000000000000 ) ;
#78 = PRODUCT_DEFINITION ( 'UNKNOWN', '', #8, #124 ) ;
#79 = CARTESIAN_POINT ( 'NONE',  ( 9.980871413050927492E-17, 0.000000000000000000, 0.8149999999999999467 ) ) ;
#80 = AXIS2_PLACEMENT_3D ( 'NONE', #91, #95, #103 ) ;
#81 = CARTESIAN_POINT ( 'NONE',  ( 9.980871413050927492E-17, 9.339999999999999858, 0.8149999999999999467 ) ) ;
#82 = FACE_OUTER_BOUND ( 'NONE', #125, .T. ) ;
#83 = EDGE_CURVE ( 'NONE', #1, #51, #63, .T. ) ;
#84 = AXIS2_PLACEMENT_3D ( 'NONE', #88, #31, #48 ) ;
#85 = LINE ( 'NONE', #72, #2 ) ;
#86 = ADVANCED_FACE ( 'NONE', ( #45 ), #123, .T. ) ;
#87 = DIRECTION ( 'NONE',  ( 0.000000000000000000, 0.000000000000000000, 1.000000000000000000 ) ) ;
#88 = CARTESIAN_POINT ( 'NONE',  ( 0.000000000000000000, 9.339999999999999858, 0.000000000000000000 ) ) ;
#89 = MECHANICAL_DESIGN_GEOMETRIC_PRESENTATION_REPRESENTATION (  '', ( #74 ), #113 ) ;
#90 = EDGE_CURVE ( 'NONE', #51, #1, #33, .T. ) ;
#91 = CARTESIAN_POINT ( 'NONE',  ( 0.000000000000000000, 0.000000000000000000, 0.000000000000000000 ) ) ;
#92 = PRODUCT ( 'Front Pin Piece', 'Front Pin Piece', '', ( #7 ) ) ;
#93 = DIRECTION ( 'NONE',  ( -0.000000000000000000, -1.000000000000000000, -0.000000000000000000 ) ) ;
#94 = CARTESIAN_POINT ( 'NONE',  ( 0.000000000000000000, 9.339999999999999858, 0.000000000000000000 ) ) ;
#95 = DIRECTION ( 'NONE',  ( 0.000000000000000000, 1.000000000000000000, 0.000000000000000000 ) ) ;
#96 = AXIS2_PLACEMENT_3D ( 'NONE', #64, #32, #87 ) ;
#97 = EDGE_CURVE ( 'NONE', #30, #22, #107, .T. ) ;
#98 =( NAMED_UNIT ( * ) PLANE_ANGLE_UNIT ( ) SI_UNIT ( $, .RADIAN. ) );
#99 = EDGE_LOOP ( 'NONE', ( #13, #12, #111, #59 ) ) ;
#100 = CARTESIAN_POINT ( 'NONE',  ( 0.000000000000000000, 9.339999999999999858, -0.8149999999999999467 ) ) ;
#101 =( NAMED_UNIT ( * ) SI_UNIT ( $, .STERADIAN. ) SOLID_ANGLE_UNIT ( ) );
#102 = CLOSED_SHELL ( 'NONE', ( #86, #36, #20, #54 ) ) ;
#103 = DIRECTION ( 'NONE',  ( 0.000000000000000000, 0.000000000000000000, 1.000000000000000000 ) ) ;
#104 = DIRECTION ( 'NONE',  ( 0.000000000000000000, 0.000000000000000000, -1.000000000000000000 ) ) ;
#105 =( LENGTH_UNIT ( ) NAMED_UNIT ( * ) SI_UNIT ( .MILLI., .METRE. ) );
#106 = SURFACE_STYLE_FILL_AREA ( #62 ) ;
#107 = CIRCLE ( 'NONE', #40, 0.8149999999999999467 ) ;
#108 = DIRECTION ( 'NONE',  ( 0.000000000000000000, 1.000000000000000000, 0.000000000000000000 ) ) ;
#109 = LINE ( 'NONE', #100, #77 ) ;
#110 = CARTESIAN_POINT ( 'NONE',  ( 0.000000000000000000, 9.339999999999999858, -0.8149999999999999467 ) ) ;
#111 = ORIENTED_EDGE ( 'NONE', *, *, #90, .T. ) ;
#112 = EDGE_CURVE ( 'NONE', #22, #30, #119, .T. ) ;
#113 =( GEOMETRIC_REPRESENTATION_CONTEXT ( 3 ) GLOBAL_UNCERTAINTY_ASSIGNED_CONTEXT ( ( #14 ) ) GLOBAL_UNIT_ASSIGNED_CONTEXT ( ( #21, #98, #101 ) ) REPRESENTATION_CONTEXT ( 'NONE', 'WORKASPACE' ) );
#114 = DIRECTION ( 'NONE',  ( 0.000000000000000000, 0.000000000000000000, 1.000000000000000000 ) ) ;
#115 = DIRECTION ( 'NONE',  ( 1.000000000000000000, 0.000000000000000000, 0.000000000000000000 ) ) ;
#116 = ORIENTED_EDGE ( 'NONE', *, *, #97, .F. ) ;
#117 = ORIENTED_EDGE ( 'NONE', *, *, #83, .F. ) ;
#118 = DIRECTION ( 'NONE',  ( 0.000000000000000000, 0.000000000000000000, -1.000000000000000000 ) ) ;
#119 = CIRCLE ( 'NONE', #52, 0.8149999999999999467 ) ;
#120 = DIRECTION ( 'NONE',  ( 0.000000000000000000, 0.000000000000000000, 1.000000000000000000 ) ) ;
#121 = CARTESIAN_POINT ( 'NONE',  ( 0.000000000000000000, 9.339999999999999858, 0.000000000000000000 ) ) ;
#122 =( GEOMETRIC_REPRESENTATION_CONTEXT ( 3 ) GLOBAL_UNCERTAINTY_ASSIGNED_CONTEXT ( ( #66 ) ) GLOBAL_UNIT_ASSIGNED_CONTEXT ( ( #105, #42, #9 ) ) REPRESENTATION_CONTEXT ( 'NONE', 'WORKASPACE' ) );
#123 = CYLINDRICAL_SURFACE ( 'NONE', #70, 0.8149999999999999467 ) ;
#124 = PRODUCT_DEFINITION_CONTEXT ( 'detailed design', #76, 'design' ) ;
#125 = EDGE_LOOP ( 'NONE', ( #60, #116, #24, #41 ) ) ;
ENDSEC;
END-ISO-10303-21;
